<svg width="1440" height="607" viewBox="0 0 1440 607" fill="none" xmlns="http://www.w3.org/2000/svg">
<path d="M1439.36 11.9042C1439.7 8.93598 1437.38 6.33292 1434.39 6.33292H5C2.23853 6.33292 0 8.57149 0 11.3329V503.084C0 504.984 0.963745 506.661 2.6908 507.454C32.2897 521.034 304.104 636.605 720 506.186C1112.27 383.176 1321.77 558.239 1363.28 598.429C1366.39 601.443 1371.79 599.462 1372.29 595.158L1439.36 11.9042Z" fill="#F97E5B"/>
<path d="M1439.71 11.6086C1439.87 8.74318 1437.59 6.33292 1434.72 6.33292H5C2.23853 6.33292 0 8.57149 0 11.3329V469.158C0 470.891 0.721069 472.392 2.21973 473.261C29.2726 488.949 301.793 637.329 720 506.186C1115.36 382.208 1354.79 544.549 1400.12 579.482C1403.43 582.032 1408.34 579.724 1408.57 575.554L1439.71 11.6086Z" fill="#899DF3"/>
<g filter="url(#filter0_d)">
<path d="M1440 6.33292H0V435.438C0 435.438 279 644.723 720 506.379C1161 368.034 1440 560.68 1440 560.68V6.33292Z" fill="white"/>
</g>
<defs>
<filter id="filter0_d" x="-10" y="0.332916" width="1460" height="574.347" filterUnits="userSpaceOnUse" color-interpolation-filters="sRGB">
<feFlood flood-opacity="0" result="BackgroundImageFix"/>
<feColorMatrix in="SourceAlpha" type="matrix" values="0 0 0 0 0 0 0 0 0 0 0 0 0 0 0 0 0 0 127 0"/>
<feOffset dy="4"/>
<feGaussianBlur stdDeviation="5"/>
<feColorMatrix type="matrix" values="0 0 0 0 0 0 0 0 0 0 0 0 0 0 0 0 0 0 0.05 0"/>
<feBlend mode="normal" in2="BackgroundImageFix" result="effect1_dropShadow"/>
<feBlend mode="normal" in="SourceGraphic" in2="effect1_dropShadow" result="shape"/>
</filter>
</defs>
</svg>
